<?xml version="1.0" encoding="UTF-8"?>
<svg id="Layer_1" xmlns="http://www.w3.org/2000/svg" version="1.1" viewBox="0 0 100 100">
  <!-- Generator: Adobe Illustrator 29.4.0, SVG Export Plug-In . SVG Version: 2.1.0 Build 152)  -->
  <defs>
    <style>
      .st0 {
        fill: #333;
      }
    </style>
  </defs>
  <path class="st0" d="M85.937,81.84H14.064c-3.379,0-6.127-2.749-6.127-6.127V24.287c0-3.378,2.749-6.127,6.127-6.127h71.873c3.378,0,6.127,2.749,6.127,6.127v51.426c0,3.378-2.749,6.127-6.127,6.127ZM14.064,20.16c-2.276,0-4.127,1.852-4.127,4.127v51.426c0,2.275,1.852,4.127,4.127,4.127h71.873c2.275,0,4.127-1.852,4.127-4.127V24.287c0-2.275-1.852-4.127-4.127-4.127H14.064Z"/>
  <path class="st0" d="M65.232,73.604H16.006c-.552,0-1-.447-1-1s.448-1,1-1h49.226c.553,0,1,.447,1,1s-.447,1-1,1Z"/>
  <path class="st0" d="M46.316,74.104h-30.31c-.829,0-1.5-.672-1.5-1.5s.671-1.5,1.5-1.5h30.31c.829,0,1.5.672,1.5,1.5s-.671,1.5-1.5,1.5Z"/>
  <circle class="st0" cx="46.316" cy="72.604" r="3.49"/>
  <g>
    <path class="st0" d="M39.781,64.697c-8.9,0-16.141-7.241-16.141-16.141s7.241-16.141,16.141-16.141,16.141,7.241,16.141,16.141-7.241,16.141-16.141,16.141ZM39.781,34.416c-7.797,0-14.141,6.343-14.141,14.141s6.343,14.141,14.141,14.141,14.141-6.344,14.141-14.141-6.343-14.141-14.141-14.141Z"/>
    <path class="st0" d="M46.499,49.806l-9.022,5.902c-.751.492-1.748-.048-1.748-.945v-11.804c0-.898.997-1.437,1.748-.945l9.022,5.902c.682.446.682,1.445,0,1.891Z"/>
  </g>
  <g>
    <rect class="st0" x="69.82" y="24.852" width="15.737" height="8"/>
    <rect class="st0" x="69.82" y="35.426" width="15.737" height="8"/>
    <rect class="st0" x="69.82" y="46" width="15.737" height="8"/>
    <rect class="st0" x="69.82" y="56.574" width="15.737" height="8"/>
    <rect class="st0" x="69.82" y="67.148" width="15.737" height="8"/>
  </g>
</svg>