<?xml version="1.0" encoding="UTF-8"?>
<svg id="Layer_1" xmlns="http://www.w3.org/2000/svg" version="1.1" viewBox="0 0 100 100">
  <!-- Generator: Adobe Illustrator 29.2.1, SVG Export Plug-In . SVG Version: 2.1.0 Build 116)  -->
  <defs>
    <style>
      .st0 {
        fill: #333;
      }
    </style>
  </defs>
  <path class="st0" d="M37.932,32.127l-4.352-2.263c-.603-.43-1.448-.34-1.969.174l-4.496,4.496c-.528.536-.604,1.365-.189,1.984l2.278,4.345c-.852,1.546-1.509,3.13-1.991,4.775l-4.669,1.478c-.732.143-1.267.777-1.267,1.509v6.389c0,.732.536,1.365,1.267,1.509l4.684,1.486c.483,1.682,1.139,3.281,1.961,4.76l-2.263,4.352c-.415.619-.339,1.448.173,1.961l2.255,2.255h.015l-.008.008,2.255,2.255c.52.52,1.343.588,1.961.174l4.345-2.248c.762.415,1.554.785,2.361,1.116.792.332,1.599.611,2.414.845l1.479,4.677c.128.732.784,1.267,1.516,1.267h6.351c.762,0,1.395-.536,1.539-1.267l1.456-4.654c1.124-.332,2.21-.777,3.281-1.275.505-.234,1.018-.453,1.509-.717l4.36,2.255c.596.43,1.441.347,1.961-.174l4.496-4.496c.536-.536.603-1.358.189-1.976l-2.278-4.352c.86-1.546,1.509-3.123,1.992-4.775l4.677-1.478c.732-.143,1.267-.777,1.267-1.509v-3.191h-.023l.023-.007v-3.191c0-.732-.536-1.365-1.267-1.509l-4.684-1.486c-.49-1.675-1.147-3.281-1.969-4.76l2.263-4.352c.415-.618.347-1.441-.173-1.961l-2.255-2.255-.015.015.008-.023-2.255-2.255c-.513-.513-1.343-.581-1.961-.174l-4.345,2.255c-.762-.415-1.554-.792-2.361-1.116-.792-.332-1.592-.619-2.406-.845l-1.486-4.684c-.121-.732-.777-1.267-1.509-1.267h-6.359c-.754,0-1.388.536-1.539,1.267l-1.448,4.654c-1.154.339-2.271.799-3.372,1.32-.475.219-.958.422-1.426.679ZM48.885,34.903c9.346,0,16.919,7.573,16.919,16.919s-7.573,16.919-16.919,16.919-16.927-7.573-16.927-16.919,7.581-16.919,16.927-16.919Z"/>
  <path class="st0" d="M48.885,19.918c2.009,0,3.637-1.628,3.637-3.637s-1.628-3.637-3.637-3.637-3.637,1.628-3.637,3.637,1.628,3.637,3.637,3.637Z"/>
  <path class="st0" d="M81.472,66.442c-1.74-1.004-3.964-.408-4.968,1.331-1.004,1.74-.408,3.964,1.331,4.969s3.964.408,4.968-1.331.408-3.964-1.331-4.969Z"/>
  <path class="st0" d="M21.251,67.764c-1.004-1.74-3.229-2.336-4.968-1.331s-2.336,3.229-1.331,4.968,3.229,2.336,4.968,1.331c1.74-1.004,2.336-3.229,1.331-4.968Z"/>
  <path class="st0" d="M15.519,64.892c.355,0,.7-.189.881-.524l2.897-5.359c.263-.485.082-1.093-.404-1.355-.485-.259-1.092-.082-1.355.404l-1.83,3.384c-.902-3.113-1.366-6.34-1.366-9.623,0-15.856,10.725-29.63,26.081-33.495.536-.135.86-.678.726-1.214s-.677-.857-1.214-.726c-16.246,4.088-27.593,18.66-27.593,35.434,0,3.397.47,6.738,1.384,9.967l-3.091-1.671c-.486-.26-1.092-.082-1.355.404-.262.485-.082,1.093.404,1.355l5.359,2.897c.151.082.314.12.475.12Z"/>
  <path class="st0" d="M75.938,74.445l-5.78-.89c-.545-.085-1.057.29-1.141.836s.291,1.057.836,1.141l3.59.552c-6.466,6.538-15.342,10.271-24.563,10.271-10.123,0-19.702-4.42-26.28-12.127-.359-.42-.99-.47-1.41-.111-.42.358-.47.99-.111,1.41,4.291,5.027,9.791,8.726,15.887,10.828h-16.672c-.552,0-1,.447-1,1s.448,1,1,1h28.587c9.525,0,18.706-3.76,25.501-10.375l-.474,3.081c-.084.546.291,1.057.836,1.141.052.008.103.012.154.012.485,0,.911-.354.987-.848l.89-5.78c.084-.546-.291-1.057-.836-1.141Z"/>
  <path class="st0" d="M90.764,24.769c.101-.245.101-.52,0-.764-.051-.122-.124-.233-.216-.325l-3.702-3.702c-.391-.391-1.023-.391-1.414,0s-.391,1.023,0,1.414l1.995,1.995h-15.25c-.079,0-.149.028-.223.045-3.607-2.922-7.813-5.18-12.461-6.579l2.589-1.065c.511-.21.754-.794.544-1.305-.21-.51-.793-.755-1.305-.544l-5.131,2.111c-.511.21-.754.794-.544,1.305l2.111,5.131c.159.386.532.62.925.62.126,0,.255-.024.38-.076.511-.21.754-.794.544-1.305l-1.291-3.137c14.862,4.188,25.102,17.621,25.102,33.231,0,3.448-.506,6.853-1.505,10.118-.162.527.135,1.087.664,1.248.098.03.196.044.293.044.428,0,.824-.277.956-.708,1.057-3.455,1.593-7.056,1.593-10.702,0-10.319-4.234-19.735-11.243-26.432h13.253l-1.995,1.996c-.391.391-.391,1.024,0,1.414.195.195.451.293.707.293s.512-.098.707-.293l3.702-3.702c.092-.092.165-.203.216-.325Z"/>
  <path class="st0" d="M46.15,60.032h.138c.695,0,1.424-.278,1.91-.764l10.938-10.451-3.854-4.027-8.75,8.402-3.68-4.41-4.237,3.576,5.556,6.666c.487.591,1.216.972,1.979,1.007Z"/>
</svg>