<?xml version="1.0" encoding="UTF-8"?>
<svg id="Layer_1" xmlns="http://www.w3.org/2000/svg" version="1.1" viewBox="0 0 100 100">
  <!-- Generator: Adobe Illustrator 29.4.0, SVG Export Plug-In . SVG Version: 2.1.0 Build 152)  -->
  <defs>
    <style>
      .st0 {
        fill: #333;
      }
    </style>
  </defs>
  <rect class="st0" x="17.228" y="29.839" width="21.218" height="14.286" rx="2.175" ry="2.175"/>
  <rect class="st0" x="17.228" y="54.49" width="9.825" height="9.825" rx="1.558" ry="1.558"/>
  <rect class="st0" x="32.343" y="54.49" width="9.825" height="9.825" rx="1.558" ry="1.558"/>
  <rect class="st0" x="43.348" y="31.223" width="29.754" height="2"/>
  <rect class="st0" x="43.348" y="36.625" width="29.754" height="2"/>
  <rect class="st0" x="17.821" y="47.758" width="24.347" height="2"/>
  <path class="st0" d="M89.294,47.758h-6.052v-30.985c0-3.811-3.1-6.911-6.91-6.911H13.477c-3.811,0-6.911,3.101-6.911,6.911v49.61c0,3.811,3.1,6.91,6.911,6.91h34.958v1.715c0,2.282,1.857,4.14,4.139,4.14h5.672c-.187,3.355-1.282,7.885-3.466,9.12-.396.223-.59.686-.475,1.125.116.438.513.745.967.745,2.166,0,11.042-3.663,11.795-10.99h22.226c2.283,0,4.14-1.857,4.14-4.14v-23.11c0-2.282-1.857-4.14-4.14-4.14ZM74.655,17.461c0,.541-.434.965-.965.965h-35.791c-.531,0-.965-.425-.965-.965,0-.531.434-.965.965-.965h35.791c.531,0,.965.434.965.965ZM31.847,17.461c0,1.081-.879,1.959-1.95,1.959-1.081,0-1.96-.878-1.96-1.959,0-1.071.878-1.95,1.96-1.95,1.071,0,1.95.878,1.95,1.95ZM25.514,17.461c0,1.081-.878,1.959-1.95,1.959-1.081,0-1.959-.878-1.959-1.959,0-1.071.878-1.95,1.959-1.95,1.071,0,1.95.878,1.95,1.95ZM19.182,17.461c0,1.081-.869,1.959-1.95,1.959s-1.959-.878-1.959-1.959c0-1.071.878-1.95,1.959-1.95s1.95.878,1.95,1.95ZM13.477,71.293c-2.708,0-4.911-2.203-4.911-4.91V23.576h72.676v24.182h-28.668c-2.282,0-4.139,1.857-4.139,4.14v19.396H13.477ZM91.434,75.008c0,1.18-.96,2.14-2.14,2.14h-23.175c-.552,0-1,.447-1,1,0,4.449-3.845,7.48-6.793,8.956,1.545-2.999,1.95-7.125,1.95-8.956,0-.553-.448-1-1-1h-6.701c-1.18,0-2.139-.96-2.139-2.14v-23.11c0-1.18.959-2.14,2.139-2.14h36.72c1.18,0,2.14.96,2.14,2.14v23.11Z"/>
  <path class="st0" d="M60.115,60.274c-1.494,0-2.705,1.211-2.705,2.705s1.211,2.705,2.705,2.705,2.705-1.211,2.705-2.705-1.211-2.705-2.705-2.705Z"/>
  <path class="st0" d="M70.934,60.274c-1.494,0-2.705,1.211-2.705,2.705s1.211,2.705,2.705,2.705,2.705-1.211,2.705-2.705-1.211-2.705-2.705-2.705Z"/>
  <circle class="st0" cx="81.754" cy="62.979" r="2.705"/>
</svg>