<svg width="69" height="55" viewBox="0 0 69 55" fill="none" xmlns="http://www.w3.org/2000/svg">
<g clip-path="url(#clip0_284_5109)">
<path d="M62.8016 0H6.18974C2.78191 0 0 2.76686 0 6.15626V48.8351C0 52.2331 2.78191 54.9914 6.18974 54.9914H62.8016C66.2181 54.9914 68.9913 52.2245 68.9913 48.8351V6.15626C68.9913 2.75821 66.2094 0 62.8016 0ZM67.2526 36.9895V39.3586C63.5579 38.9609 60.6717 35.8481 60.6717 32.0696C60.6717 28.2911 63.5492 25.1611 67.2526 24.7634V27.1325C64.8619 27.513 63.0276 29.5708 63.0276 32.061C63.0276 34.5512 64.8532 36.609 67.2526 36.9895ZM7.80673 6.77881C7.80673 5.81905 8.59783 5.03223 9.5715 5.03223C10.5452 5.03223 11.3276 5.81905 11.3276 6.77881C11.3276 7.73856 10.5452 8.53404 9.5715 8.53404C8.59783 8.53404 7.80673 7.74721 7.80673 6.77881ZM13.5096 6.77881C13.5096 5.81905 14.3007 5.03223 15.2744 5.03223C16.2481 5.03223 17.0305 5.81905 17.0305 6.77881C17.0305 7.73856 16.2394 8.53404 15.2744 8.53404C14.3094 8.53404 13.5096 7.74721 13.5096 6.77881ZM19.2125 6.77881C19.2125 5.81905 20.0037 5.03223 20.9773 5.03223C21.951 5.03223 22.7334 5.81905 22.7334 6.77881C22.7334 7.73856 21.9423 8.53404 20.9773 8.53404C20.0123 8.53404 19.2125 7.74721 19.2125 6.77881ZM27.3149 6.77881C27.3149 6.30325 27.7061 5.91416 28.1842 5.91416H60.4195C60.8977 5.91416 61.2889 6.30325 61.2889 6.77881C61.2889 7.25436 60.8977 7.64345 60.4195 7.64345H28.1842C27.7061 7.64345 27.3149 7.26301 27.3149 6.77881ZM62.8016 53.2707H6.18974C3.72949 53.2707 1.73869 51.282 1.73869 48.8437V13.376H67.2613V16.5839H66.4528C66.0877 16.5839 65.766 16.8519 65.6878 17.2151L64.9401 21.2097C64.0969 21.4432 63.2797 21.7804 62.5321 22.1954L59.2285 19.9387C58.9069 19.7312 58.507 19.7658 58.2375 20.0338L55.9685 22.2819C55.7077 22.5499 55.6729 22.9649 55.8816 23.2676L58.1419 26.5532C57.7246 27.3141 57.3942 28.1009 57.1508 28.9569L53.1518 29.6919C52.7867 29.761 52.5172 30.081 52.5172 30.4614V33.6519C52.5172 34.0151 52.7867 34.3437 53.1518 34.4128L57.1508 35.1564C57.3942 35.9951 57.7246 36.8079 58.1419 37.5601L55.8816 40.8458C55.6729 41.1484 55.7077 41.5634 55.9685 41.8228L58.2375 44.0795C58.507 44.3389 58.9156 44.3822 59.2285 44.166L62.5321 41.9179C63.2797 42.333 64.0882 42.6615 64.9401 42.9036L65.6878 46.881C65.7573 47.2441 66.079 47.5122 66.4528 47.5122H67.2613V48.8264C67.2613 51.2734 65.2618 53.2534 62.8103 53.2534L62.8016 53.2707Z" fill="#333333"/>
<path d="M12.0144 25.775C12.1795 25.9306 12.3969 26.0085 12.6055 26.0085C12.8402 26.0085 13.0663 25.9133 13.2401 25.7318C13.5705 25.3859 13.5444 24.8325 13.1967 24.5126L10.8407 22.3251L13.1967 20.1375C13.5444 19.809 13.5705 19.2642 13.2401 18.9184C12.9098 18.5725 12.3621 18.5466 12.0144 18.8751L8.98034 21.6939C8.80647 21.8582 8.70215 22.083 8.70215 22.3251C8.70215 22.5672 8.80647 22.792 8.98034 22.9563L12.0144 25.775Z" fill="#333333"/>
<path d="M40.0073 40.0762C39.6596 39.7476 39.1032 39.7736 38.7816 40.1194C38.4512 40.4653 38.4773 41.0187 38.825 41.3386L41.181 43.5261L38.825 45.7137C38.4773 46.0422 38.4512 46.587 38.7816 46.9328C38.9554 47.1144 39.1815 47.2095 39.4162 47.2095C39.6248 47.2095 39.8422 47.1317 40.0073 46.9761L43.0414 44.1573C43.2152 43.993 43.3195 43.7682 43.3195 43.5261C43.3195 43.284 43.2152 43.0592 43.0414 42.8949L40.0073 40.0762Z" fill="#333333"/>
<path d="M42.6676 21.4604H15.6657C15.1876 21.4604 14.7964 21.8495 14.7964 22.3251C14.7964 22.8006 15.1876 23.1897 15.6657 23.1897H42.6676C43.1458 23.1897 43.537 22.8006 43.537 22.3251C43.537 21.8495 43.1458 21.4604 42.6676 21.4604Z" fill="#333333"/>
<path d="M42.6675 32.061H9.57149C9.09335 32.061 8.70215 32.4501 8.70215 32.9257C8.70215 33.4012 9.09335 33.7903 9.57149 33.7903H42.6675C43.1456 33.7903 43.5368 33.4012 43.5368 32.9257C43.5368 32.4501 43.1456 32.061 42.6675 32.061Z" fill="#333333"/>
<path d="M34.8173 42.6615H9.57149C9.09335 42.6615 8.70215 43.0506 8.70215 43.5261C8.70215 44.0017 9.09335 44.3908 9.57149 44.3908H34.8173C35.2954 44.3908 35.6866 44.0017 35.6866 43.5261C35.6866 43.0506 35.2954 42.6615 34.8173 42.6615Z" fill="#333333"/>
</g>
<defs>
<clipPath id="clip0_284_5109">
<rect width="69" height="55" fill="white"/>
</clipPath>
</defs>
</svg>
