<svg width="73" height="73" viewBox="0 0 73 73" fill="none" xmlns="http://www.w3.org/2000/svg">
<path d="M33.2298 39.8288C34.0401 40.6902 34.8504 41.5735 35.6753 42.4276C30.3098 47.9464 24.5574 52.7936 17.1844 52.7936C15.7025 52.7936 14.498 51.5891 14.498 50.1072C14.498 48.6253 15.7025 47.4208 17.1844 47.4208C22.5864 47.4208 27.2657 43.4058 32.0034 38.5148C32.4049 38.9455 32.821 39.3908 33.2298 39.8288Z" fill="#333333"/>
<path d="M55.8159 21.9948C55.8013 21.9948 55.794 21.9948 55.7867 21.9948C48.4867 22.0094 42.7343 27.1778 37.325 32.8499C37.8579 33.412 38.3835 33.9741 38.9018 34.5362C39.6026 35.2881 40.3034 36.04 40.9969 36.77C45.8295 31.6746 50.5307 27.353 55.8232 27.353C55.8305 27.353 55.8305 27.353 55.8305 27.353C61.3566 27.3603 65.8461 31.8571 65.8461 37.3832C65.8461 42.9166 61.3493 47.4134 55.8159 47.4134C49.2897 47.4134 43.8147 41.5515 38.0258 35.3465C31.8938 28.7765 25.5574 21.9875 17.1843 21.9875C8.69437 21.9875 1.78857 28.8933 1.78857 37.3832C1.78857 45.8731 8.69437 52.7789 17.1843 52.7789C18.6662 52.7789 19.8707 51.5744 19.8707 50.0925C19.8707 48.6106 18.6662 47.4061 17.1843 47.4061C11.6509 47.4061 7.15408 42.9093 7.15408 37.3759C7.15408 31.8425 11.6509 27.3457 17.1843 27.3457C23.2287 27.3457 28.5066 33.0032 34.1057 38.9965C40.4275 45.7709 46.961 52.7716 55.8232 52.7716C64.3131 52.7716 71.2189 45.8658 71.2189 37.3759C71.2116 28.9079 64.3058 21.9948 55.8159 21.9948Z" fill="#333333"/>
<path d="M34.894 27.6305C37.7556 24.8054 40.6172 22.0825 43.6102 20.0896" stroke="#333333" stroke-width="2" stroke-miterlimit="10" stroke-linecap="round" stroke-linejoin="round"/>
<path d="M37.4635 28.4336L34.2661 28.3095L34.3902 25.1121" stroke="#333333" stroke-width="2" stroke-miterlimit="10" stroke-linecap="round" stroke-linejoin="round"/>
<path d="M34.2373 50.1218C31.0545 52.5746 27.8717 54.9252 24.6597 56.5312" stroke="#333333" stroke-width="2" stroke-miterlimit="10" stroke-linecap="round" stroke-linejoin="round"/>
<path d="M31.7847 49.0049L34.9456 49.5232L34.4273 52.6841" stroke="#333333" stroke-width="2" stroke-miterlimit="10" stroke-linecap="round" stroke-linejoin="round"/>
</svg>
