<svg width="64" height="64" viewBox="0 0 64 64" fill="none" xmlns="http://www.w3.org/2000/svg">
<g clip-path="url(#clip0_284_5155)">
<path d="M31.9998 61.1998C15.9027 61.1998 2.80811 48.1052 2.80811 32.0081C2.80811 15.911 15.9027 2.81641 31.9998 2.81641C48.0969 2.81641 61.1915 15.911 61.1915 32.0081C61.1915 48.1052 48.0969 61.1998 31.9998 61.1998ZM31.9998 4.44311C16.7929 4.43502 4.42672 16.8093 4.42672 32.0081C4.42672 47.2069 16.7929 59.5812 31.9998 59.5812C47.2067 59.5812 59.5729 47.215 59.5729 32.0081C59.5729 16.8012 47.1986 4.43502 31.9998 4.43502V4.44311Z" fill="#333333"/>
<path d="M31.9999 7.2352C33.9979 7.2352 35.6175 5.61555 35.6175 3.6176C35.6175 1.61966 33.9979 0 31.9999 0C30.002 0 28.3823 1.61966 28.3823 3.6176C28.3823 5.61555 30.002 7.2352 31.9999 7.2352Z" fill="#333333"/>
<path d="M11.9291 15.5467C13.9271 15.5467 15.5467 13.9271 15.5467 11.9291C15.5467 9.93118 13.9271 8.31152 11.9291 8.31152C9.93118 8.31152 8.31152 9.93118 8.31152 11.9291C8.31152 13.9271 9.93118 15.5467 11.9291 15.5467Z" fill="#333333"/>
<path d="M3.6176 35.6177C5.61555 35.6177 7.2352 33.998 7.2352 32C7.2352 30.0021 5.61555 28.3824 3.6176 28.3824C1.61966 28.3824 0 30.0021 0 32C0 33.998 1.61966 35.6177 3.6176 35.6177Z" fill="#333333"/>
<path d="M11.9291 55.6803C13.9271 55.6803 15.5467 54.0606 15.5467 52.0627C15.5467 50.0647 13.9271 48.4451 11.9291 48.4451C9.93118 48.4451 8.31152 50.0647 8.31152 52.0627C8.31152 54.0606 9.93118 55.6803 11.9291 55.6803Z" fill="#333333"/>
<path d="M31.9999 63.9919C33.9979 63.9919 35.6175 62.3723 35.6175 60.3743C35.6175 58.3764 33.9979 56.7567 31.9999 56.7567C30.002 56.7567 28.3823 58.3764 28.3823 60.3743C28.3823 62.3723 30.002 63.9919 31.9999 63.9919Z" fill="#333333"/>
<path d="M52.0629 55.6803C54.0609 55.6803 55.6805 54.0606 55.6805 52.0627C55.6805 50.0647 54.0609 48.4451 52.0629 48.4451C50.065 48.4451 48.4453 50.0647 48.4453 52.0627C48.4453 54.0606 50.065 55.6803 52.0629 55.6803Z" fill="#333333"/>
<path d="M60.3744 35.6177C62.3724 35.6177 63.992 33.998 63.992 32C63.992 30.0021 62.3724 28.3824 60.3744 28.3824C58.3765 28.3824 56.7568 30.0021 56.7568 32C56.7568 33.998 58.3765 35.6177 60.3744 35.6177Z" fill="#333333"/>
<path d="M52.0629 15.5467C54.0609 15.5467 55.6805 13.9271 55.6805 11.9291C55.6805 9.93118 54.0609 8.31152 52.0629 8.31152C50.065 8.31152 48.4453 9.93118 48.4453 11.9291C48.4453 13.9271 50.065 15.5467 52.0629 15.5467Z" fill="#333333"/>
<path d="M52.0625 52.8721C51.9169 52.8721 51.7712 52.8316 51.6417 52.7507C29.7742 39.3485 31.1743 3.94137 31.1905 3.58527C31.2148 3.14015 31.5709 2.77597 32.0403 2.81643C32.4854 2.84071 32.8334 3.21299 32.8091 3.6662C32.7929 4.01421 31.4414 38.4826 52.4915 51.3829C52.8719 51.6176 52.9932 52.1113 52.7585 52.4998C52.6048 52.7507 52.3377 52.8883 52.0706 52.8883L52.0625 52.8721Z" fill="#333333"/>
<path d="M3.61744 32.8093C3.22088 32.8093 2.87288 32.5179 2.81623 32.1133C2.75148 31.6682 3.05902 31.2635 3.49605 31.1988C27.3544 27.7107 31.1663 3.74708 31.1986 3.50428C31.2634 3.05917 31.668 2.75972 32.1131 2.82447C32.5583 2.88921 32.8577 3.30196 32.793 3.73898C32.7525 3.98987 28.795 29.135 3.73075 32.8012C3.69028 32.8012 3.64982 32.8093 3.60935 32.8093H3.61744Z" fill="#333333"/>
<path d="M52.0709 52.8721C51.7795 52.8721 51.4882 52.7102 51.3506 52.427C51.2535 52.2327 41.3961 32.4209 51.3425 11.5731C51.5367 11.1685 52.0142 10.9985 52.4189 11.1928C52.8235 11.387 52.9935 11.8645 52.7993 12.2691C43.209 32.3723 52.6941 51.4963 52.7912 51.6905C52.9935 52.0871 52.8316 52.5726 52.4351 52.775C52.3137 52.8316 52.1923 52.864 52.0709 52.864V52.8721Z" fill="#333333"/>
<path d="M31.9999 61.1917C31.5548 61.1917 31.1906 60.8275 31.1906 60.3824C31.1906 55.7856 29.4183 46.26 22.79 39.737C17.9908 35.0107 11.5568 32.6718 3.63373 32.8093C3.19671 32.8336 2.81633 32.4613 2.80824 32.0162C2.80015 31.5711 3.15624 31.1988 3.60136 31.1907C11.9534 31.0612 18.8001 33.5458 23.9231 38.5797C30.4784 45.0299 32.8012 54.3531 32.8012 60.3743C32.8012 60.8195 32.437 61.1836 31.9918 61.1836L31.9999 61.1917Z" fill="#333333"/>
<path d="M32.0002 61.1917C31.5551 61.1917 31.1909 60.8275 31.1909 60.3824C31.1909 40.8215 49.368 33.7076 60.1965 31.215C60.6335 31.1179 61.0705 31.3849 61.1677 31.822C61.2648 32.259 60.9977 32.696 60.5607 32.7931C50.1934 35.1806 32.8095 41.9464 32.8095 60.3824C32.8095 60.8275 32.4453 61.1917 32.0002 61.1917Z" fill="#333333"/>
<path d="M32 61.1917C31.5549 61.1917 31.1907 60.8275 31.1907 60.3824C31.1907 56.9104 29.2889 53.7541 26.1002 51.9413C22.086 49.659 17.0764 49.9585 12.342 52.7668C12.0425 52.9448 11.6622 52.9125 11.3951 52.6778C11.128 52.4511 11.0471 52.0708 11.1847 51.7551C11.3223 51.4314 25.0724 19.4881 51.8281 11.1603C52.257 11.0308 52.7102 11.2655 52.8397 11.6944C52.9692 12.1234 52.7345 12.5766 52.3056 12.7061C30.2519 19.569 17.214 43.0632 13.6692 50.266C18.2337 48.267 23.0491 48.3318 26.9095 50.5331C30.608 52.6373 32.8174 56.3196 32.8174 60.3824C32.8174 60.8275 32.4533 61.1917 32.0081 61.1917H32Z" fill="#333333"/>
<path d="M58.9335 32.8174C21.6892 32.8174 11.6214 13.1351 11.2006 12.2853C11.0063 11.8806 11.1682 11.4031 11.5729 11.2008C11.9775 11.0066 12.455 11.1684 12.6573 11.5731C12.7544 11.7754 23.0407 31.6682 60.366 31.1907H60.3741C60.8192 31.1907 61.1753 31.5468 61.1834 31.9919C61.1834 32.437 60.8354 32.8093 60.3822 32.8093C59.8966 32.8093 59.4029 32.8174 58.9254 32.8174H58.9335Z" fill="#333333"/>
</g>
<defs>
<clipPath id="clip0_284_5155">
<rect width="64" height="64" fill="white"/>
</clipPath>
</defs>
</svg>
