<svg width="68" height="66" viewBox="0 0 68 66" fill="none" xmlns="http://www.w3.org/2000/svg">
<g clip-path="url(#clip0_284_5116)">
<path d="M60.3536 22.7665H54.2717V17.9657V17.8516C54.2717 15.6487 52.4787 13.8495 50.2639 13.8495H31.9214V8.75904H38.0034C38.9965 8.75904 39.7963 7.96037 39.7963 6.96862V1.79043C39.7963 0.79867 38.9965 0 38.0034 0H24.5563C23.5631 0 22.7633 0.79867 22.7633 1.79043V6.95984C22.7633 7.9516 23.5631 8.75027 24.5563 8.75027H30.6382V13.8407H11.8826C9.67662 13.8407 7.87489 15.6311 7.87489 17.8428V22.7577H1.79294C0.799793 22.7577 0 23.5564 0 24.5481V29.7176C0 30.7093 0.799793 31.508 1.79294 31.508H15.24C16.2332 31.508 17.033 30.7093 17.033 29.7176V24.5481C17.033 23.5564 16.2332 22.7577 15.24 22.7577H9.15807V17.8428C9.15807 16.342 10.3797 15.1221 11.8826 15.1221H30.6382V22.7577H24.5563C23.5631 22.7577 22.7633 23.5564 22.7633 24.5481V29.7176C22.7633 30.7093 23.5631 31.508 24.5563 31.508H30.6382V39.9862H24.5563C23.5631 39.9862 22.7633 40.7848 22.7633 41.7766V46.946C22.7633 47.9378 23.5631 48.7364 24.5563 48.7364H30.6382V57.2146H24.3805C23.484 57.2146 22.7633 57.9343 22.7633 58.8295V64.35C22.7633 65.2452 23.484 65.9649 24.3805 65.9649H38.1791C39.0756 65.9649 39.7963 65.2452 39.7963 64.35V58.8295C39.7963 57.9343 39.0756 57.2146 38.1791 57.2146H31.9214V48.7364H38.0034C38.9965 48.7364 39.7963 47.9378 39.7963 46.946V45.1731H50.2639C52.4699 45.1731 54.2717 43.3827 54.2717 41.171V31.4992H60.3536C61.3468 31.4992 62.1466 30.7005 62.1466 29.7088V24.5394C62.1466 23.5476 61.3468 22.7489 60.3536 22.7489V22.7665ZM52.9885 41.1973C52.9885 42.6981 51.7668 43.9181 50.2639 43.9181H39.7963V41.7941C39.7963 40.8024 38.9965 40.0037 38.0034 40.0037H31.9214V31.5255H38.0034C38.9965 31.5255 39.7963 30.7269 39.7963 29.7351V24.5657C39.7963 23.5739 38.9965 22.7753 38.0034 22.7753H31.9214V15.1396H50.2639C51.7668 15.1396 52.9885 16.3596 52.9885 17.8604V22.7753H46.9065C45.9134 22.7753 45.1136 23.5739 45.1136 24.5657V29.7351C45.1136 30.7269 45.9134 31.5255 46.9065 31.5255H52.9973V41.1973H52.9885Z" fill="#333333"/>
<path d="M9.15818 53.7742C9.15818 53.4144 8.86815 53.1335 8.51659 53.1335C8.16503 53.1335 7.875 53.4232 7.875 53.7742C7.875 54.1253 8.16503 54.4149 8.51659 54.4149C8.86815 54.4149 9.15818 54.1253 9.15818 53.7742Z" fill="#333333"/>
<path d="M8.51659 50.5707C8.86815 50.5707 9.15818 50.2811 9.15818 49.93C9.15818 49.5702 8.86815 49.2893 8.51659 49.2893C8.16503 49.2893 7.875 49.5789 7.875 49.93C7.875 50.2811 8.16503 50.5707 8.51659 50.5707Z" fill="#333333"/>
<path d="M8.51659 46.7354C8.86815 46.7354 9.15818 46.4457 9.15818 46.0947C9.15818 45.7348 8.86815 45.454 8.51659 45.454C8.16503 45.454 7.875 45.7436 7.875 46.0947C7.875 46.4457 8.16503 46.7354 8.51659 46.7354Z" fill="#333333"/>
<path d="M8.51659 42.8912C8.86815 42.8912 9.15818 42.6016 9.15818 42.2506C9.15818 41.8907 8.86815 41.6099 8.51659 41.6099C8.16503 41.6099 7.875 41.8995 7.875 42.2506C7.875 42.6016 8.16503 42.8912 8.51659 42.8912Z" fill="#333333"/>
<path d="M18.7114 60.9797C18.3599 60.9797 18.0786 61.2694 18.0786 61.6204C18.0786 61.9715 18.3686 62.2611 18.7202 62.2611C19.0718 62.2611 19.3618 61.9715 19.3618 61.6204C19.3618 61.2694 19.0718 60.9797 18.7202 60.9797H18.7114Z" fill="#333333"/>
<path d="M9.78189 57.3287C9.67643 57.004 9.32487 56.8284 8.99968 56.925C8.6657 57.0215 8.47234 57.3638 8.56023 57.6973C8.63054 57.9869 8.89421 58.18 9.18425 58.18C9.23698 58.18 9.28971 58.18 9.34245 58.1625C9.68522 58.0747 9.89615 57.7324 9.80826 57.3901C9.80826 57.3726 9.79947 57.355 9.79068 57.3375L9.78189 57.3287Z" fill="#333333"/>
<path d="M14.8711 60.9797C14.5195 60.9797 14.2383 61.2694 14.2383 61.6204C14.2383 61.9715 14.5283 62.2611 14.8799 62.2611C15.2314 62.2611 15.5215 61.9715 15.5215 61.6204C15.5215 61.2694 15.2314 60.9797 14.8799 60.9797H14.8711Z" fill="#333333"/>
<path d="M11.5926 60.1899C11.2937 59.9968 10.8982 60.0758 10.7049 60.3655C10.5291 60.6375 10.573 60.9886 10.8103 61.1992C10.9334 61.3046 11.0828 61.366 11.241 61.366C11.364 61.366 11.4871 61.3309 11.5926 61.2607C11.8826 61.0676 11.9705 60.6726 11.7683 60.3742C11.7244 60.304 11.6541 60.2426 11.5838 60.1899H11.5926Z" fill="#333333"/>
<path d="M8.51659 39.0558C8.86815 39.0558 9.15818 38.7662 9.15818 38.4151C9.15818 38.0553 8.86815 37.7744 8.51659 37.7744C8.16503 37.7744 7.875 38.064 7.875 38.4151C7.875 38.7662 8.16503 39.0558 8.51659 39.0558Z" fill="#333333"/>
<path d="M8.51659 35.2117C8.86815 35.2117 9.15818 34.9221 9.15818 34.571C9.15818 34.2111 8.86815 33.9303 8.51659 33.9303C8.16503 33.9303 7.875 34.2199 7.875 34.571C7.875 34.9221 8.16503 35.2117 8.51659 35.2117Z" fill="#333333"/>
<path d="M58.2705 5.02015C58.6221 5.02015 58.9033 4.73052 58.9033 4.37946C58.9033 4.0284 58.6133 3.73877 58.2617 3.73877C57.9102 3.73877 57.6201 4.0284 57.6201 4.37946C57.6201 4.73052 57.9102 5.02015 58.2617 5.02015H58.2705Z" fill="#333333"/>
<path d="M48.0933 60.9797C47.7417 60.9797 47.4604 61.2694 47.4604 61.6204C47.4604 61.9715 47.7505 62.2611 48.102 62.2611C48.4536 62.2611 48.7436 61.9715 48.7436 61.6204C48.7436 61.2694 48.4536 60.9797 48.102 60.9797H48.0933Z" fill="#333333"/>
<path d="M54.4209 5.02015C54.7724 5.02015 55.0537 4.73052 55.0537 4.37946C55.0537 4.0284 54.7637 3.73877 54.4121 3.73877C54.0605 3.73877 53.7705 4.0284 53.7705 4.37946C53.7705 4.73052 54.0605 5.02015 54.4121 5.02015H54.4209Z" fill="#333333"/>
<path d="M44.2436 60.9797C43.8921 60.9797 43.6108 61.2694 43.6108 61.6204C43.6108 61.9715 43.9009 62.2611 44.2524 62.2611C44.604 62.2611 44.894 61.9715 44.894 61.6204C44.894 61.2694 44.604 60.9797 44.2524 60.9797H44.2436Z" fill="#333333"/>
<path d="M50.5806 5.02015C50.9321 5.02015 51.2134 4.73052 51.2134 4.37946C51.2134 4.0284 50.9233 3.73877 50.5718 3.73877C50.2202 3.73877 49.9302 4.0284 49.9302 4.37946C49.9302 4.73052 50.2202 5.02015 50.5718 5.02015H50.5806Z" fill="#333333"/>
<path d="M67.2969 9.93512C67.6485 9.93512 67.9385 9.6455 67.9385 9.29443C67.9385 9.24177 67.9385 9.18034 67.9209 9.13645C67.833 8.79417 67.4903 8.58353 67.1475 8.67129C66.8311 8.75028 66.629 9.04869 66.6641 9.36464C66.6993 9.68938 66.9717 9.9439 67.2969 9.9439V9.93512Z" fill="#333333"/>
<path d="M46.7397 5.02015C47.0913 5.02015 47.3725 4.73052 47.3725 4.37946C47.3725 4.0284 47.0825 3.73877 46.7309 3.73877C46.3794 3.73877 46.0894 4.0284 46.0894 4.37946C46.0894 4.73052 46.3794 5.02015 46.7309 5.02015H46.7397Z" fill="#333333"/>
<path d="M67.3584 12.4891C67.0068 12.4891 66.7168 12.7788 66.7168 13.1298C66.7168 13.4897 67.0068 13.7705 67.3584 13.7705C67.7099 13.7705 68 13.4809 68 13.1298C68 12.7788 67.7099 12.4891 67.3584 12.4891Z" fill="#333333"/>
<path d="M67.3584 31.6835C67.0068 31.6835 66.7168 31.9731 66.7168 32.3242C66.7168 32.684 67.0068 32.9649 67.3584 32.9649C67.7099 32.9649 68 32.6752 68 32.3242C68 31.9731 67.7099 31.6835 67.3584 31.6835Z" fill="#333333"/>
<path d="M67.3584 35.5189C67.0068 35.5189 66.7168 35.8085 66.7168 36.1596C66.7168 36.5195 67.0068 36.8003 67.3584 36.8003C67.7099 36.8003 68 36.5107 68 36.1596C68 35.8085 67.7099 35.5189 67.3584 35.5189Z" fill="#333333"/>
<path d="M67.3584 27.8394C67.0068 27.8394 66.7168 28.129 66.7168 28.48C66.7168 28.8399 67.0068 29.1207 67.3584 29.1207C67.7099 29.1207 68 28.8311 68 28.48C68 28.129 67.7099 27.8394 67.3584 27.8394Z" fill="#333333"/>
<path d="M67.3584 39.363C67.0068 39.363 66.7168 39.6527 66.7168 40.0037C66.7168 40.3636 67.0068 40.6444 67.3584 40.6444C67.7099 40.6444 68 40.3548 68 40.0037C68 39.6527 67.7099 39.363 67.3584 39.363Z" fill="#333333"/>
<path d="M67.3584 43.1984C67.0068 43.1984 66.7168 43.488 66.7168 43.8391C66.7168 44.1989 67.0068 44.4797 67.3584 44.4797C67.7099 44.4797 68 44.1901 68 43.8391C68 43.488 67.7099 43.1984 67.3584 43.1984Z" fill="#333333"/>
<path d="M67.3584 24.004C67.0068 24.004 66.7168 24.2937 66.7168 24.6447C66.7168 25.0046 67.0068 25.2854 67.3584 25.2854C67.7099 25.2854 68 24.9958 68 24.6447C68 24.2937 67.7099 24.004 67.3584 24.004Z" fill="#333333"/>
<path d="M67.3584 16.3245C67.0068 16.3245 66.7168 16.6141 66.7168 16.9652C66.7168 17.325 67.0068 17.6058 67.3584 17.6058C67.7099 17.6058 68 17.3162 68 16.9652C68 16.6141 67.7099 16.3245 67.3584 16.3245Z" fill="#333333"/>
<path d="M67.3584 47.0426C67.0068 47.0426 66.7168 47.3322 66.7168 47.6833C66.7168 48.0431 67.0068 48.324 67.3584 48.324C67.7099 48.324 68 48.0344 68 47.6833C68 47.3322 67.7099 47.0426 67.3584 47.0426Z" fill="#333333"/>
<path d="M67.3584 20.1686C67.0068 20.1686 66.7168 20.4582 66.7168 20.8093C66.7168 21.1691 67.0068 21.45 67.3584 21.45C67.7099 21.45 68 21.1603 68 20.8093C68 20.4582 67.7099 20.1686 67.3584 20.1686Z" fill="#333333"/>
<path d="M67.3584 54.7133C67.0068 54.7133 66.7168 55.0029 66.7168 55.3539C66.7168 55.7138 67.0068 55.9946 67.3584 55.9946C67.7099 55.9946 68 55.705 68 55.3539C68 55.0029 67.7099 54.7133 67.3584 54.7133Z" fill="#333333"/>
<path d="M59.624 60.9797C59.2725 60.9797 58.9912 61.2694 58.9912 61.6204C58.9912 61.9715 59.2812 62.2611 59.6328 62.2611C59.9844 62.2611 60.2744 61.9715 60.2744 61.6204C60.2744 61.2694 59.9844 60.9797 59.6328 60.9797H59.624Z" fill="#333333"/>
<path d="M62.1816 3.76518C61.874 3.73008 61.5663 3.93194 61.4872 4.2479C61.3994 4.59018 61.6103 4.93247 61.9531 5.02024C62.0058 5.02901 62.0585 5.03779 62.1113 5.03779C62.4628 5.03779 62.7528 4.74816 62.7528 4.3971C62.7528 4.06359 62.498 3.79151 62.1816 3.76518Z" fill="#333333"/>
<path d="M55.7832 60.9797C55.4316 60.9797 55.1504 61.2694 55.1504 61.6204C55.1504 61.9715 55.4404 62.2611 55.792 62.2611C56.1435 62.2611 56.4336 61.9715 56.4336 61.6204C56.4336 61.2694 56.1435 60.9797 55.792 60.9797H55.7832Z" fill="#333333"/>
<path d="M63.2804 60.6989C63.2804 60.6989 63.2452 60.7077 63.2276 60.7164C62.9024 60.8218 62.7267 61.1728 62.8233 61.4975C62.9024 61.7784 63.1573 61.9539 63.4386 61.9539C63.4913 61.9539 63.544 61.9539 63.5968 61.9364C63.9395 61.8486 64.1505 61.5063 64.0626 61.164C63.9747 60.8218 63.6319 60.6111 63.2891 60.6989H63.2804Z" fill="#333333"/>
<path d="M67.3584 50.8779C67.0068 50.8779 66.7168 51.1676 66.7168 51.5186C66.7168 51.8785 67.0068 52.1593 67.3584 52.1593C67.7099 52.1593 68 51.8697 68 51.5186C68 51.1676 67.7099 50.8779 67.3584 50.8779Z" fill="#333333"/>
<path d="M66.0049 5.49412C65.7588 5.24838 65.3545 5.24838 65.0996 5.49412C64.8535 5.73987 64.8535 6.14359 65.0996 6.39811C65.2227 6.52976 65.3896 6.5912 65.5478 6.5912C65.706 6.5912 65.873 6.52976 66.0049 6.40689C66.251 6.16114 66.251 5.74864 66.0049 5.5029V5.49412Z" fill="#333333"/>
<path d="M51.9336 60.9797C51.582 60.9797 51.3008 61.2694 51.3008 61.6204C51.3008 61.9715 51.5908 62.2611 51.9424 62.2611C52.2939 62.2611 52.584 61.9715 52.584 61.6204C52.584 61.2694 52.2939 60.9797 51.9424 60.9797H51.9336Z" fill="#333333"/>
<path d="M65.8905 58.654C65.6972 58.9524 65.7763 59.3474 66.0663 59.5404C66.1718 59.6107 66.2948 59.6458 66.4178 59.6458C66.6288 59.6458 66.8309 59.5404 66.954 59.3561C67.1473 59.0665 67.0682 58.6628 66.7782 58.4697C66.4794 58.2766 66.0839 58.3556 65.8905 58.6452V58.654Z" fill="#333333"/>
<path d="M44.894 7.03881C45.0171 7.16169 45.184 7.22312 45.3422 7.22312C45.5004 7.22312 45.6674 7.16169 45.7905 7.03881C46.0366 6.79307 46.0366 6.38935 45.7905 6.13482L44.0327 4.37951L45.7905 2.62419C46.0366 2.37844 46.0366 1.97472 45.7905 1.7202C45.5444 1.47445 45.1401 1.47445 44.8852 1.7202L42.6792 3.92312C42.4331 4.16887 42.4331 4.57259 42.6792 4.82711L44.8852 7.03004L44.894 7.03881Z" fill="#333333"/>
</g>
<defs>
<clipPath id="clip0_284_5116">
<rect width="68" height="66" fill="white"/>
</clipPath>
</defs>
</svg>
