<svg width="104" height="104" viewBox="0 0 104 104" fill="none" xmlns="http://www.w3.org/2000/svg">
<path d="M71.4482 50.0241C71.4482 49.5769 71.1154 49.1817 70.6682 49.0881L65.749 48.1729C65.4682 47.1329 65.0418 46.1449 64.5322 45.2193L67.3194 41.1737C67.5794 40.7785 67.5274 40.2897 67.1946 39.9569L64.4282 37.1697C64.0954 36.8577 63.5858 36.8057 63.2114 37.0657L59.1658 39.8321C58.2298 39.3225 57.2522 38.9169 56.2018 38.6153L55.297 33.7065C55.2034 33.2593 54.8186 32.9265 54.3506 32.9265H50.4194C49.9722 32.9265 49.5666 33.2593 49.4834 33.7065L48.5682 38.6153C47.5282 38.9169 46.5402 39.3225 45.6042 39.8321L41.5586 37.0657C41.1842 36.8057 40.6746 36.8577 40.3522 37.1697L37.565 39.9569C37.253 40.2897 37.1906 40.7889 37.461 41.1737L40.2274 45.2193C39.7178 46.1345 39.3122 47.1329 39.0106 48.1729L34.1018 49.0881C33.6546 49.1817 33.3218 49.5665 33.3218 50.0241V52.0001V53.9761C33.3218 54.4233 33.6546 54.8185 34.1018 54.9121L39.021 55.8273C39.3018 56.8673 39.7282 57.8553 40.2378 58.7809L37.4506 62.8265C37.1906 63.2217 37.2426 63.7105 37.5754 64.0433L40.3418 66.8305C40.6746 67.1425 41.1842 67.1945 41.5586 66.9345L45.6042 64.1681C46.5402 64.6777 47.5178 65.0833 48.5682 65.3849L49.473 70.2937C49.5666 70.7409 49.9514 71.0737 50.4194 71.0737H54.3506C54.7978 71.0737 55.2034 70.7409 55.2866 70.2937L56.2018 65.3849C57.2418 65.0833 58.2298 64.6777 59.1658 64.1681L63.2114 66.9345C63.5858 67.1945 64.0954 67.1425 64.4178 66.8305L67.205 64.0433C67.517 63.7105 67.5794 63.2113 67.309 62.8265L64.5426 58.7809C65.0522 57.8657 65.4578 56.8673 65.7594 55.8273L70.6682 54.9121C71.1154 54.8185 71.4482 54.4337 71.4482 53.9761V52.0001H71.4586V50.0241H71.4482ZM52.3954 61.0481C47.3826 61.0481 43.337 57.0025 43.337 52.0001H43.3162H43.3266C43.3266 47.0081 47.3722 42.9521 52.3746 42.9521C57.3874 42.9521 61.433 46.9977 61.433 52.0001H61.4434C61.4434 57.0025 57.3978 61.0481 52.3954 61.0481Z" fill="#333333"/>
<path d="M58.5416 52.0001C58.5416 48.5993 55.7856 45.8433 52.3848 45.8433C48.984 45.8433 46.228 48.5993 46.228 52.0001H46.2384C46.2384 55.4009 48.9944 58.1569 52.3952 58.1569C55.796 58.1569 58.552 55.4009 58.5416 52.0001Z" fill="#333333"/>
<path d="M52.3642 29.3073C51.7922 29.3073 51.3242 28.8393 51.3242 28.2673V19.2401C51.3242 18.6681 51.7922 18.2001 52.3642 18.2001C52.9362 18.2001 53.4042 18.6681 53.4042 19.2401V28.2673C53.4042 28.8393 52.9362 29.3073 52.3642 29.3073Z" fill="#333333"/>
<path d="M60.9336 33.904C60.3616 33.904 59.8936 33.436 59.8936 32.864V30.0872C59.8936 29.8064 60.008 29.5464 60.1952 29.3488L65.0416 24.5024C65.4472 24.0968 66.1024 24.0968 66.508 24.5024C66.9136 24.908 66.9136 25.5632 66.508 25.9688L61.9736 30.5032V32.8432C61.9736 33.436 61.5056 33.904 60.9336 33.904Z" fill="#333333"/>
<path d="M43.7321 35.0688C43.1601 35.0688 42.6921 34.6008 42.6921 34.0288V30.5136L38.1577 25.9792C37.7521 25.5736 37.7521 24.9184 38.1577 24.5128C38.5633 24.1072 39.2185 24.1072 39.6241 24.5128L44.4705 29.3592C44.6681 29.5568 44.7721 29.8168 44.7721 30.0976V34.0392C44.7721 34.6008 44.3041 35.0688 43.7321 35.0688Z" fill="#333333"/>
<path d="M52.3017 85.8001C51.7297 85.8001 51.2617 85.3321 51.2617 84.7601V74.5681C51.2617 73.9961 51.7297 73.5281 52.3017 73.5281C52.8737 73.5281 53.3417 73.9961 53.3417 74.5681V84.7601C53.3417 85.3321 52.8737 85.8001 52.3017 85.8001Z" fill="#333333"/>
<path d="M38.8859 79.7993C38.6155 79.7993 38.3555 79.6953 38.1475 79.4977C37.7419 79.0921 37.7419 78.4368 38.1475 78.0312L42.6819 73.4968V69.9817C42.6819 69.4097 43.1499 68.9417 43.7219 68.9417C44.2939 68.9417 44.7619 69.4097 44.7619 69.9817V73.9233C44.7619 74.2041 44.6475 74.4641 44.4603 74.6617L39.6139 79.508C39.4163 79.6952 39.1563 79.7993 38.8859 79.7993Z" fill="#333333"/>
<path d="M65.7804 79.7993C65.51 79.7993 65.25 79.6953 65.042 79.4977L60.1956 74.6513C59.998 74.4537 59.894 74.1937 59.894 73.9129V69.9713C59.894 69.3993 60.362 68.9313 60.934 68.9313C61.506 68.9313 61.974 69.3993 61.974 69.9713V73.4865L66.5084 78.0209C66.914 78.4265 66.914 79.0817 66.5084 79.4873C66.3108 79.6953 66.0404 79.7993 65.7804 79.7993Z" fill="#333333"/>
<path d="M85.0928 53.0712H74.9008C74.3288 53.0712 73.8608 52.6032 73.8608 52.0312C73.8608 51.4592 74.3288 50.9912 74.9008 50.9912H85.0928C85.6648 50.9912 86.1328 51.4592 86.1328 52.0312C86.1328 52.6032 85.6648 53.0712 85.0928 53.0712Z" fill="#333333"/>
<path d="M79.0922 66.4873C78.8218 66.4873 78.5618 66.3833 78.3538 66.1857L73.8194 61.6513H70.3042C69.7322 61.6513 69.2642 61.1833 69.2642 60.6113C69.2642 60.0393 69.7322 59.5713 70.3042 59.5713H74.2458C74.5266 59.5713 74.7866 59.6857 74.9842 59.8729L79.8306 64.7193C80.2362 65.1249 80.2362 65.7801 79.8306 66.1857C79.6226 66.3833 79.3522 66.4873 79.0922 66.4873Z" fill="#333333"/>
<path d="M74.2458 44.4392H70.3042C69.7322 44.4392 69.2642 43.9712 69.2642 43.3992C69.2642 42.8272 69.7322 42.3592 70.3042 42.3592H73.8194L78.3538 37.8248C78.7594 37.4192 79.4146 37.4192 79.8202 37.8248C80.2258 38.2304 80.2258 38.8856 79.8202 39.2912L74.9738 44.1376C74.7866 44.3248 74.5266 44.4392 74.2458 44.4392Z" fill="#333333"/>
<path d="M29.7652 53.0088H19.5732C19.0012 53.0088 18.5332 52.5408 18.5332 51.9688C18.5332 51.3968 19.0012 50.9288 19.5732 50.9288H29.7652C30.3372 50.9288 30.8052 51.3968 30.8052 51.9688C30.8052 52.5408 30.3372 53.0088 29.7652 53.0088Z" fill="#333333"/>
<path d="M34.3619 44.4392H30.4203C30.1395 44.4392 29.8795 44.3248 29.6819 44.1376L24.8354 39.2912C24.4299 38.8856 24.4299 38.2304 24.8354 37.8248C25.241 37.4192 25.8963 37.4192 26.3019 37.8248L30.8363 42.3592H34.3514C34.9234 42.3592 35.3914 42.8272 35.3914 43.3992C35.3914 43.9712 34.9339 44.4392 34.3619 44.4392Z" fill="#333333"/>
<path d="M25.5739 66.4873C25.3035 66.4873 25.0435 66.3833 24.8355 66.1857C24.4298 65.7801 24.4298 65.1249 24.8355 64.7193L29.6819 59.8729C29.8795 59.6753 30.1395 59.5713 30.4203 59.5713H34.3619C34.9339 59.5713 35.4019 60.0393 35.4019 60.6113C35.4019 61.1833 34.9339 61.6513 34.3619 61.6513H30.8467L26.3123 66.1857C26.1043 66.3833 25.8443 66.4873 25.5739 66.4873Z" fill="#333333"/>
<path d="M52.3644 22.0689C53.9267 22.0689 55.1932 20.8024 55.1932 19.2401C55.1932 17.6778 53.9267 16.4113 52.3644 16.4113C50.8021 16.4113 49.5356 17.6778 49.5356 19.2401C49.5356 20.8024 50.8021 22.0689 52.3644 22.0689Z" fill="#333333"/>
<path d="M85.093 54.8601C86.6553 54.8601 87.9218 53.5936 87.9218 52.0313C87.9218 50.469 86.6553 49.2025 85.093 49.2025C83.5307 49.2025 82.2642 50.469 82.2642 52.0313C82.2642 53.5936 83.5307 54.8601 85.093 54.8601Z" fill="#333333"/>
<path d="M18.9074 54.8601C20.4697 54.8601 21.7362 53.5936 21.7362 52.0313C21.7362 50.469 20.4697 49.2025 18.9074 49.2025C17.3451 49.2025 16.0786 50.469 16.0786 52.0313C16.0786 53.5936 17.3451 54.8601 18.9074 54.8601Z" fill="#333333"/>
<path d="M25.5739 41.3816C27.1362 41.3816 28.4027 40.1151 28.4027 38.5528C28.4027 36.9905 27.1362 35.724 25.5739 35.724C24.0116 35.724 22.7451 36.9905 22.7451 38.5528C22.7451 40.1151 24.0116 41.3816 25.5739 41.3816Z" fill="#333333"/>
<path d="M79.196 41.3816C80.7583 41.3816 82.0248 40.1151 82.0248 38.5528C82.0248 36.9905 80.7583 35.724 79.196 35.724C77.6337 35.724 76.3672 36.9905 76.3672 38.5528C76.3672 40.1151 77.6337 41.3816 79.196 41.3816Z" fill="#333333"/>
<path d="M25.5739 68.276C27.1362 68.276 28.4027 67.0095 28.4027 65.4472C28.4027 63.8849 27.1362 62.6184 25.5739 62.6184C24.0116 62.6184 22.7451 63.8849 22.7451 65.4472C22.7451 67.0095 24.0116 68.276 25.5739 68.276Z" fill="#333333"/>
<path d="M38.8859 81.588C40.4482 81.588 41.7147 80.3215 41.7147 78.7592C41.7147 77.1969 40.4482 75.9304 38.8859 75.9304C37.3236 75.9304 36.0571 77.1969 36.0571 78.7592C36.0571 80.3215 37.3236 81.588 38.8859 81.588Z" fill="#333333"/>
<path d="M65.614 81.588C67.1763 81.588 68.4428 80.3215 68.4428 78.7592C68.4428 77.1969 67.1763 75.9304 65.614 75.9304C64.0517 75.9304 62.7852 77.1969 62.7852 78.7592C62.7852 80.3215 64.0517 81.588 65.614 81.588Z" fill="#333333"/>
<path d="M38.8859 27.8825C40.4482 27.8825 41.7147 26.616 41.7147 25.0537C41.7147 23.4913 40.4482 22.2249 38.8859 22.2249C37.3236 22.2249 36.0571 23.4913 36.0571 25.0537C36.0571 26.616 37.3236 27.8825 38.8859 27.8825Z" fill="#333333"/>
<path d="M65.614 27.8825C67.1763 27.8825 68.4428 26.616 68.4428 25.0537C68.4428 23.4913 67.1763 22.2249 65.614 22.2249C64.0517 22.2249 62.7852 23.4913 62.7852 25.0537C62.7852 26.616 64.0517 27.8825 65.614 27.8825Z" fill="#333333"/>
<path d="M79.196 68.276C80.7583 68.276 82.0248 67.0095 82.0248 65.4472C82.0248 63.8849 80.7583 62.6184 79.196 62.6184C77.6337 62.6184 76.3672 63.8849 76.3672 65.4472C76.3672 67.0095 77.6337 68.276 79.196 68.276Z" fill="#333333"/>
<path d="M52.3644 87.5889C53.9267 87.5889 55.1932 86.3224 55.1932 84.7601C55.1932 83.1978 53.9267 81.9313 52.3644 81.9313C50.8021 81.9313 49.5356 83.1978 49.5356 84.7601C49.5356 86.3224 50.8021 87.5889 52.3644 87.5889Z" fill="#333333"/>
</svg>
